# Blender v2.78 (sub 0) OBJ File: 'table.blend'
# www.blender.org
mtllib table.mtl
o Cube
v 1.902229 1.744507 -1.902229
v 1.902229 1.744507 1.902230
v -1.902230 1.744507 1.902229
v -1.902229 1.744507 -1.902230
v 1.902230 2.295618 -1.902229
v 1.902228 2.295618 1.902230
v -1.902230 2.295618 1.902228
v -1.902229 2.295618 -1.902230
v 1.601905 -0.256866 1.893991
v 1.601905 1.743134 1.893991
v 1.601905 -0.256866 1.591969
v 1.601905 1.743134 1.591969
v 1.890344 -0.256866 1.893991
v 1.890344 1.743134 1.893991
v 1.890344 -0.256866 1.591969
v 1.890344 1.743134 1.591969
v 1.601905 -0.248375 -1.604217
v 1.601905 1.751625 -1.604217
v 1.601905 -0.248375 -1.906240
v 1.601905 1.751625 -1.906240
v 1.890344 -0.248375 -1.604217
v 1.890344 1.751625 -1.604217
v 1.890344 -0.248375 -1.906240
v 1.890344 1.751625 -1.906240
v -1.900185 -0.265334 -1.604217
v -1.900185 1.734666 -1.604217
v -1.900185 -0.265334 -1.906240
v -1.900185 1.734666 -1.906240
v -1.611747 -0.265334 -1.604217
v -1.611747 1.734666 -1.604217
v -1.611747 -0.265334 -1.906240
v -1.611747 1.734666 -1.906240
v -1.900185 -0.256856 1.905979
v -1.900185 1.743145 1.905979
v -1.900185 -0.256856 1.603957
v -1.900185 1.743145 1.603957
v -1.611747 -0.256856 1.905979
v -1.611747 1.743145 1.905979
v -1.611747 -0.256856 1.603957
v -1.611747 1.743145 1.603957
vt 0.1766 1.0000
vt 0.5562 0.5000
vt 0.5562 1.0000
vt 0.5562 0.0000
vt 0.1766 0.5000
vt 0.1766 0.0000
vt 0.5562 0.5000
vt 0.6112 0.0000
vt 0.6112 0.5000
vt 0.6661 0.5000
vt 0.7211 0.0000
vt 0.7211 0.5000
vt 0.7211 0.5000
vt 0.7761 0.0000
vt 0.7761 0.5000
vt 0.6661 0.0000
vt 0.6112 0.5000
vt 0.6112 0.0000
vt 0.7513 0.5000
vt 0.7814 0.7628
vt 0.7513 0.7628
vt 0.8350 0.0000
vt 0.8638 0.2628
vt 0.8350 0.2628
vt 0.8062 0.2628
vt 0.7761 0.0000
vt 0.8062 0.0000
vt 0.8979 0.5000
vt 0.9266 0.7628
vt 0.8979 0.7628
vt 0.6098 0.7628
vt 0.5810 0.8025
vt 0.5810 0.7628
vt 0.7761 0.3025
vt 0.8049 0.2628
vt 0.8049 0.3025
vt 0.6609 0.5000
vt 0.6910 0.7628
vt 0.6609 0.7628
vt 0.8403 0.5000
vt 0.8691 0.7628
vt 0.8403 0.7628
vt 0.8115 0.7628
vt 0.7814 0.5000
vt 0.8115 0.5000
vt 0.8926 0.0000
vt 0.9213 0.2628
vt 0.8926 0.2628
vt 0.6386 0.7628
vt 0.6098 0.8025
vt 0.6098 0.7628
vt 0.7499 0.8025
vt 0.7787 0.7628
vt 0.7787 0.8025
vt 0.6910 0.5000
vt 0.7211 0.7628
vt 0.6910 0.7628
vt 0.8115 0.5000
vt 0.8403 0.7628
vt 0.8115 0.7628
vt 0.5810 0.5000
vt 0.6112 0.7628
vt 0.5810 0.7628
vt 0.8691 0.5000
vt 0.8979 0.7628
vt 0.8691 0.7628
vt 0.6674 0.7628
vt 0.6386 0.8025
vt 0.6386 0.7628
vt 0.6924 0.8025
vt 0.7211 0.7628
vt 0.7211 0.8025
vt 0.6112 0.5000
vt 0.6413 0.7628
vt 0.6112 0.7628
vt 0.8062 0.0000
vt 0.8350 0.2628
vt 0.8062 0.2628
vt 0.7211 0.5000
vt 0.7513 0.7628
vt 0.7211 0.7628
vt 0.8638 0.0000
vt 0.8926 0.2628
vt 0.8638 0.2628
vt 0.8049 0.3025
vt 0.7761 0.3422
vt 0.7761 0.3025
vt 0.7211 0.8025
vt 0.7499 0.7628
vt 0.7499 0.8025
vt 0.1766 0.5000
vt 0.5562 0.5000
vt 0.5562 0.0000
vt 0.6661 0.0000
vt 0.7211 0.0000
vt 0.6661 0.5000
vt 0.7814 0.5000
vt 0.8638 0.0000
vt 0.7761 0.2628
vt 0.9266 0.5000
vt 0.6098 0.8025
vt 0.7761 0.2628
vt 0.6910 0.5000
vt 0.8691 0.5000
vt 0.7814 0.7628
vt 0.9213 0.0000
vt 0.6386 0.8025
vt 0.7499 0.7628
vt 0.7211 0.5000
vt 0.8403 0.5000
vt 0.6112 0.5000
vt 0.8979 0.5000
vt 0.6674 0.8025
vt 0.6924 0.7628
vt 0.6413 0.5000
vt 0.8350 0.0000
vt 0.7513 0.5000
vt 0.8926 0.0000
vt 0.8049 0.3422
vt 0.7211 0.7628
vn 0.0000 -1.0000 0.0000
vn 0.0000 1.0000 -0.0000
vn 1.0000 -0.0000 0.0000
vn -0.0000 -0.0000 1.0000
vn -1.0000 -0.0000 -0.0000
vn 0.0000 0.0000 -1.0000
usemtl Material.008
s off
f 2/1/1 4/2/1 1/3/1
f 8/4/2 6/5/2 5/6/2
f 5/7/3 2/8/3 1/9/3
f 6/10/4 3/11/4 2/12/4
f 7/13/5 4/14/5 3/15/5
f 1/16/6 8/17/6 5/18/6
f 10/19/5 11/20/5 9/21/5
f 12/22/6 15/23/6 11/24/6
f 16/25/3 13/26/3 15/27/3
f 14/28/4 9/29/4 13/30/4
f 15/31/1 9/32/1 11/33/1
f 12/34/2 14/35/2 16/36/2
f 18/37/5 19/38/5 17/39/5
f 20/40/6 23/41/6 19/42/6
f 24/43/3 21/44/3 23/45/3
f 22/46/4 17/47/4 21/48/4
f 23/49/1 17/50/1 19/51/1
f 20/52/2 22/53/2 24/54/2
f 26/55/5 27/56/5 25/57/5
f 28/58/6 31/59/6 27/60/6
f 32/61/3 29/62/3 31/63/3
f 30/64/4 25/65/4 29/66/4
f 31/67/1 25/68/1 27/69/1
f 28/70/2 30/71/2 32/72/2
f 34/73/5 35/74/5 33/75/5
f 36/76/6 39/77/6 35/78/6
f 40/79/3 37/80/3 39/81/3
f 38/82/4 33/83/4 37/84/4
f 39/85/1 33/86/1 35/87/1
f 36/88/2 38/89/2 40/90/2
f 2/1/1 3/91/1 4/2/1
f 8/4/2 7/92/2 6/5/2
f 5/7/3 6/93/3 2/8/3
f 6/10/4 7/94/4 3/11/4
f 7/13/5 8/95/5 4/14/5
f 1/16/6 4/96/6 8/17/6
f 10/19/5 12/97/5 11/20/5
f 12/22/6 16/98/6 15/23/6
f 16/25/3 14/99/3 13/26/3
f 14/28/4 10/100/4 9/29/4
f 15/31/1 13/101/1 9/32/1
f 12/34/2 10/102/2 14/35/2
f 18/37/5 20/103/5 19/38/5
f 20/40/6 24/104/6 23/41/6
f 24/43/3 22/105/3 21/44/3
f 22/46/4 18/106/4 17/47/4
f 23/49/1 21/107/1 17/50/1
f 20/52/2 18/108/2 22/53/2
f 26/55/5 28/109/5 27/56/5
f 28/58/6 32/110/6 31/59/6
f 32/61/3 30/111/3 29/62/3
f 30/64/4 26/112/4 25/65/4
f 31/67/1 29/113/1 25/68/1
f 28/70/2 26/114/2 30/71/2
f 34/73/5 36/115/5 35/74/5
f 36/76/6 40/116/6 39/77/6
f 40/79/3 38/117/3 37/80/3
f 38/82/4 34/118/4 33/83/4
f 39/85/1 37/119/1 33/86/1
f 36/88/2 34/120/2 38/89/2
